<svg id="Layer_1" data-name="Layer 1" xmlns="http://www.w3.org/2000/svg" viewBox="0 0 360 360"><defs><style>.cls-1{fill:#0091ff;}.cls-2{fill:#00002b;}</style></defs><title>L&amp;amp;M x StreamNative_logomark_favicon</title><path class="cls-1" d="M103,177.29a77,77,0,0,1,77-77,78.28,78.28,0,0,1,13.17,1.12c26,4.5,52.86-5.21,67.8-27A97.53,97.53,0,0,0,278.11,19H180a98.11,98.11,0,0,0-98.11,98.11h0A97.67,97.67,0,0,0,103,177.8C103,177.63,103,177.46,103,177.29Z"/><path class="cls-1" d="M257,182.71a77,77,0,0,1-77,77,78.28,78.28,0,0,1-13.17-1.12c-26-4.5-52.86,5.21-67.8,27A97.53,97.53,0,0,0,81.89,341H180a98.11,98.11,0,0,0,98.11-98.11h0A97.67,97.67,0,0,0,257,182.2C257,182.37,257,182.54,257,182.71Z"/><circle class="cls-2" cx="180" cy="180" r="30.06"/></svg>